<svg width="81" height="50" viewBox="0 0 81 50" fill="none" xmlns="http://www.w3.org/2000/svg">
<g clip-path="url(#clip0_220_4324)">
<path d="M4.53629 13.2722V21.5282H1.39111V1.21973H10.1012C13.7179 1.21973 15.9175 3.52036 15.9175 7.2318C15.9175 10.1411 14.5807 12.2199 11.9666 12.9395L16.3916 21.5282H12.8837L8.73591 13.2722H4.5337H4.53629ZM4.53629 10.6131H9.87843C11.5754 10.6131 12.6324 9.70007 12.6324 7.97976V6.59474C12.6324 4.877 11.5754 3.9614 9.87843 3.9614H4.53629V10.6105V10.6131Z" fill="#FF5E18"/>
<path d="M17.0215 13.9639C17.0215 9.14337 19.7496 6.06641 23.9518 6.06641C28.154 6.06641 30.9105 9.14079 30.9105 13.9639C30.9105 18.7869 28.1825 21.8871 23.9518 21.8871C19.7211 21.8871 17.0215 18.8127 17.0215 13.9639ZM27.7084 15.238V12.7155C27.7084 9.99966 26.2057 8.58627 23.9518 8.58627C21.6978 8.58627 20.2237 9.99966 20.2237 12.7155V15.238C20.2237 17.9539 21.7263 19.3672 23.9518 19.3672C26.1772 19.3672 27.7084 17.9539 27.7084 15.238Z" fill="#FF5E18"/>
<path d="M31.9102 13.9638C31.9102 9.14332 34.4154 6.09473 38.8119 6.09473C41.7887 6.09473 43.7111 7.53649 44.5997 9.75201L42.1229 10.9152C41.6488 9.50182 40.5089 8.58879 38.8119 8.58879C36.3637 8.58879 35.1097 10.2524 35.1097 12.6613V15.2947C35.1097 17.732 36.3611 19.3672 38.8119 19.3672C40.6203 19.3672 41.7343 18.3974 42.4571 16.8731L44.7396 18.0931C43.737 20.5304 41.7058 21.8896 38.8119 21.8896C34.4154 21.8896 31.9102 18.8152 31.9102 13.9664V13.9638Z" fill="#FF5E18"/>
<path d="M45.9961 21.5284V0H49.0584V13.355H49.1698L51.3123 10.6959L55.2373 6.4299H58.7167L53.2891 12.3311L59.2452 21.5284H55.6285L51.175 14.3248L49.061 16.5687V21.5284H45.9987H45.9961Z" fill="#FF5E18"/>
<path d="M58.4917 13.9638C58.4917 9.17169 61.1369 6.09473 65.3935 6.09473C69.6501 6.09473 72.1009 9.36513 72.1009 13.6027V14.7118H61.6369V15.2379C61.6369 17.7036 63.0851 19.393 65.7277 19.393C67.593 19.393 68.9273 18.48 69.79 17.0382L71.5724 18.7559C70.4869 20.6387 68.2874 21.8871 65.4505 21.8871C61.1654 21.8871 58.4917 18.7843 58.4917 13.9638ZM61.6369 12.7181H68.9014V12.4421C68.9014 10.0306 67.5645 8.4521 65.422 8.4521C63.2794 8.4521 61.6369 10.1157 61.6369 12.5246V12.7181Z" fill="#FF5E18"/>
<path d="M77.9948 21.5286C75.8808 21.5286 74.7952 20.3087 74.7952 18.3433V8.8958H72.4014V6.4301H73.7097C74.7382 6.4301 75.0724 6.01485 75.0724 4.98834V2.27246H77.8264V6.42752H81.0001V8.89322H77.8264V19.0604H80.7773V21.526H77.9948V21.5286Z" fill="#FF5E18"/>
<path d="M-0.000189581 46.5391L2.22527 44.5712C3.61651 46.3173 5.34195 47.2303 7.59591 47.2303C10.2411 47.2303 11.6323 45.9278 11.6323 43.8774C11.6323 42.2138 10.7411 41.3008 8.34723 40.8572L6.56479 40.4961C2.61388 39.7765 0.608638 37.9479 0.608638 34.76C0.608638 31.1595 3.39111 28.9697 7.70472 28.9697C10.767 28.9697 12.9925 30.0788 14.5236 32.1009L12.324 33.9837C11.267 32.627 9.79028 31.7398 7.53632 31.7398C5.11396 31.7398 3.75123 32.7379 3.75123 34.5923C3.75123 36.4468 4.80825 37.1148 7.09071 37.5842L8.89906 37.9169C12.9614 38.7474 14.7723 40.5219 14.7723 43.7072C14.7723 47.4754 12.0442 49.9952 7.39642 49.9952C4.02844 49.9952 1.69157 48.6386 -0.00537109 46.5314L-0.000189581 46.5391Z" fill="#FF5E18"/>
<path d="M20.3713 49.6419C18.2572 49.6419 17.1717 48.422 17.1717 46.4566V37.0091H14.7778V34.5434H16.0862C17.1147 34.5434 17.4489 34.1281 17.4489 33.1016V30.3857H20.2029V34.5408H23.3766V37.0065H20.2029V47.1736H23.1537V49.6393H20.3713V49.6419Z" fill="#FF5E18"/>
<path d="M24.1016 45.4839C24.1016 42.5204 26.3011 40.9677 30.5577 40.9677H33.3687V39.6653C33.3687 37.7541 32.3402 36.645 30.1691 36.645C28.3608 36.645 27.2467 37.5323 26.4954 38.7496L24.6871 37.1144C25.6612 35.4251 27.441 34.1768 30.3375 34.1768C34.234 34.1768 36.4051 36.1163 36.4051 39.4409V47.1707H38.0191V49.6364H36.3481C34.677 49.6364 33.8143 48.5841 33.62 47.1139H33.4801C32.8946 48.9967 31.2261 49.9949 29.0266 49.9949C25.8814 49.9949 24.1016 48.2204 24.1016 45.4787V45.4839ZM33.3687 45.1795V42.9073H30.6147C28.3038 42.9073 27.2182 43.6836 27.2182 45.0119V45.5664C27.2182 46.9798 28.2209 47.6994 29.8893 47.6994C31.8661 47.6994 33.3687 46.7013 33.3687 45.177V45.1795Z" fill="#FF5E18"/>
<path d="M39.4155 49.6415V34.543H42.4493V37.5064H42.5892C43.0348 35.9822 44.3431 34.543 46.7629 34.543H47.6541V37.4523H46.3743C43.869 37.4523 42.4493 38.3395 42.4493 39.918V49.6441H39.4155V49.6415Z" fill="#FF5E18"/>
<path d="M53.696 49.6419C51.5819 49.6419 50.4964 48.422 50.4964 46.4566V37.0091H48.1025V34.5434H49.4109C50.4394 34.5434 50.7736 34.1281 50.7736 33.1016V30.3857H53.5276V34.5408H56.7013V37.0065H53.5276V47.1736H56.4785V49.6393H53.696V49.6419Z" fill="#FF5E18"/>
</g>
<defs>
<clipPath id="clip0_220_4324">
<rect width="81" height="50" fill="white"/>
</clipPath>
</defs>
</svg>
