<svg width="207" height="126" viewBox="0 0 207 126" fill="none" xmlns="http://www.w3.org/2000/svg">
<g clip-path="url(#clip0_220_4234)">
<path d="M0 63.085C0 23.0735 13.7139 0 43.4325 0C73.1511 0 86.865 23.0735 86.865 63.085C86.865 103.097 73.1511 126 43.4325 126C13.7139 126 0 102.927 0 63.085ZM67.0475 73.3777V52.6223C67.0475 30.538 60.4365 15.9335 43.4325 15.9335C26.4285 15.9335 19.8175 30.538 19.8175 52.6223V73.3777C19.8175 95.462 26.4285 110.066 43.4325 110.066C60.4365 110.066 67.0475 95.462 67.0475 73.3777Z" fill="#0C1528"/>
<path d="M116.66 92.9586V120.128H106.406V53.2871H134.802C146.594 53.2871 153.759 60.8598 153.759 73.0688C153.759 82.6505 149.408 89.4814 140.875 91.8614L155.296 120.128H143.873L130.359 92.9586H116.66ZM116.66 84.2114H134.08C139.614 84.2114 143.058 81.1978 143.058 75.5415V70.9824C143.058 65.3261 139.614 62.3125 134.08 62.3125H116.66V84.196V84.2114Z" fill="#0C1528"/>
<path d="M158.832 109.927L166.089 103.452C170.624 109.201 176.251 112.199 183.6 112.199C192.225 112.199 196.761 107.918 196.761 101.165C196.761 95.6938 193.855 92.6802 186.06 91.2275L180.248 90.0375C167.365 87.673 160.831 81.6457 160.831 71.1676C160.831 59.3141 169.902 52.1123 183.969 52.1123C193.947 52.1123 201.204 55.7595 206.2 62.4204L199.036 68.6176C195.592 64.1513 190.78 61.2304 183.431 61.2304C175.544 61.2304 171.101 64.5068 171.101 70.6267C171.101 76.7467 174.545 78.9257 181.986 80.4712L187.89 81.5685C201.127 84.3039 207.031 90.1457 207.031 100.624C207.031 113.034 198.144 121.317 182.985 121.317C172.008 121.317 164.382 116.851 158.847 109.912L158.832 109.927Z" fill="#0C1528"/>
</g>
<defs>
<clipPath id="clip0_220_4234">
<rect width="207" height="126" fill="white"/>
</clipPath>
</defs>
</svg>
