<svg width="202" height="125" viewBox="0 0 202 125" fill="none" xmlns="http://www.w3.org/2000/svg">
<g clip-path="url(#clip0_220_4256)">
<path d="M11.3133 33.1811V53.821H3.46973V3.0498H25.1913C34.2107 3.0498 39.696 8.80138 39.696 18.08C39.696 25.3533 36.3622 30.5503 29.8431 32.3493L40.8783 53.821H32.1303L21.7864 33.1811H11.3068H11.3133ZM11.3133 26.5332H24.6356C28.8675 26.5332 31.5036 24.2507 31.5036 19.9499V16.4873C31.5036 12.193 28.8675 9.90398 24.6356 9.90398H11.3133V26.5268V26.5332Z" fill="white"/>
<path d="M42.4482 34.9096C42.4482 22.8584 49.2516 15.166 59.7311 15.166C70.2107 15.166 77.0851 22.852 77.0851 34.9096C77.0851 46.9673 70.2818 54.7178 59.7311 54.7178C49.1805 54.7178 42.4482 47.0318 42.4482 34.9096ZM69.0995 38.0949V31.7888C69.0995 24.9991 65.3521 21.4657 59.7311 21.4657C54.1102 21.4657 50.4339 24.9991 50.4339 31.7888V38.0949C50.4339 44.8846 54.1812 48.4181 59.7311 48.4181C65.2811 48.4181 69.0995 44.8846 69.0995 38.0949Z" fill="white"/>
<path d="M79.5791 34.909C79.5791 22.8578 85.8268 15.2363 96.7909 15.2363C104.215 15.2363 109.008 18.8407 111.225 24.3795L105.048 27.2876C103.866 23.7541 101.023 21.4715 96.7909 21.4715C90.6854 21.4715 87.5583 25.6304 87.5583 31.6528V38.2362C87.5583 44.3295 90.6789 48.4175 96.7909 48.4175C101.301 48.4175 104.079 45.9931 105.881 42.1823L111.573 45.2322C109.073 51.3255 104.008 54.7236 96.7909 54.7236C85.8268 54.7236 79.5791 47.0376 79.5791 34.9155V34.909Z" fill="white"/>
<path d="M114.707 53.8211V0H122.344V33.3875H122.622L127.965 26.7397L137.753 16.0747H146.43L132.894 30.8277L147.748 53.8211H138.729L127.622 35.8119L122.35 41.4216V53.8211H114.713H114.707Z" fill="white"/>
<path d="M145.868 34.909C145.868 22.9287 152.464 15.2363 163.08 15.2363C173.695 15.2363 179.807 23.4123 179.807 34.0063V36.7789H153.711V38.0943C153.711 44.2586 157.323 48.482 163.913 48.482C168.565 48.482 171.892 46.1994 174.044 42.595L178.489 46.8893C175.782 51.5963 170.296 54.7171 163.222 54.7171C152.535 54.7171 145.868 46.9603 145.868 34.909ZM153.711 31.7947H171.828V31.1047C171.828 25.0759 168.494 21.1298 163.151 21.1298C157.807 21.1298 153.711 25.2887 153.711 31.3111V31.7947Z" fill="white"/>
<path d="M194.505 53.8211C189.233 53.8211 186.526 50.7712 186.526 45.8579V22.239H180.556V16.0748H183.819C186.384 16.0748 187.217 15.0366 187.217 12.4704V5.68066H194.085V16.0683H202V22.2326H194.085V47.6504H201.444V53.8146H194.505V53.8211Z" fill="white"/>
<path d="M-0.000261797 116.347L5.54965 111.427C9.01915 115.793 13.3221 118.075 18.9431 118.075C25.5397 118.075 29.0092 114.819 29.0092 109.693C29.0092 105.534 26.7866 103.251 20.8168 102.142L16.3717 101.24C6.51878 99.4407 1.51805 94.8692 1.51805 86.8995C1.51805 77.8981 8.45706 72.4238 19.2145 72.4238C26.8512 72.4238 32.4011 75.1964 36.2195 80.2516L30.7342 84.9586C28.0982 81.567 24.4155 79.3489 18.7945 79.3489C12.7536 79.3489 9.35512 81.8443 9.35512 86.4804C9.35512 91.1164 11.9912 92.7865 17.6832 93.96L22.1929 94.7918C32.3236 96.868 36.8398 101.304 36.8398 109.267C36.8398 118.688 30.0365 124.988 18.4456 124.988C10.0464 124.988 4.21871 121.596 -0.0131836 116.328L-0.000261797 116.347Z" fill="white"/>
<path d="M50.8021 124.103C45.53 124.103 42.8229 121.053 42.8229 116.14V92.5212H36.853V86.357H40.1158C42.6808 86.357 43.5142 85.3189 43.5142 82.7526V75.9629H50.3822V86.3505H58.2968V92.5148H50.3822V117.933H57.7411V124.097H50.8021V124.103Z" fill="white"/>
<path d="M60.106 113.709C60.106 106.301 65.5913 102.419 76.2065 102.419H83.2166V99.1626C83.2166 94.3847 80.6516 91.6121 75.2374 91.6121C70.7277 91.6121 67.9495 93.8302 66.0758 96.8736L61.5661 92.7856C63.9954 88.5622 68.4341 85.4414 75.6573 85.4414C85.3745 85.4414 90.7888 90.2903 90.7888 98.6017V117.926H94.8139V124.09H90.6466C86.4793 124.09 84.3279 121.46 83.8433 117.784H83.4944C82.0342 122.491 77.8734 124.987 72.3881 124.987C64.5446 124.987 60.106 120.551 60.106 113.696V113.709ZM83.2166 112.948V107.268H76.3487C70.5855 107.268 67.8784 109.209 67.8784 112.529V113.916C67.8784 117.449 70.3788 119.248 74.5396 119.248C79.4693 119.248 83.2166 116.753 83.2166 112.942V112.948Z" fill="white"/>
<path d="M98.2959 124.104V86.3574H105.862V93.7661H106.21C107.322 89.9554 110.585 86.3574 116.619 86.3574H118.842V93.6307H115.65C109.402 93.6307 105.862 95.8488 105.862 99.795V124.11H98.2959V124.104Z" fill="white"/>
<path d="M133.909 124.103C128.636 124.103 125.929 121.053 125.929 116.14V92.5212H119.959V86.357H123.222C125.787 86.357 126.621 85.3189 126.621 82.7526V75.9629H133.489V86.3505H141.403V92.5148H133.489V117.933H140.848V124.097H133.909V124.103Z" fill="white"/>
</g>
<defs>
<clipPath id="clip0_220_4256">
<rect width="202" height="125" fill="white"/>
</clipPath>
</defs>
</svg>
