<svg width="26" height="26" viewBox="0 0 26 26" fill="none" xmlns="http://www.w3.org/2000/svg">
<path d="M0 4.875C0 3.08242 1.45742 1.625 3.25 1.625H9.9582C10.9281 1.625 11.8574 2.01094 12.543 2.69648L14.7215 4.875H22.75C24.5426 4.875 26 6.33242 26 8.125V21.125C26 22.9176 24.5426 24.375 22.75 24.375H3.25C1.45742 24.375 0 22.9176 0 21.125V4.875ZM3.25 4.0625C2.80312 4.0625 2.4375 4.42812 2.4375 4.875V21.125C2.4375 21.5719 2.80312 21.9375 3.25 21.9375H22.75C23.1969 21.9375 23.5625 21.5719 23.5625 21.125V8.125C23.5625 7.67812 23.1969 7.3125 22.75 7.3125H14.5539C14.0156 7.3125 13.4977 7.09922 13.1168 6.71836L10.8215 4.41797C10.593 4.18945 10.2832 4.0625 9.9582 4.0625H3.25Z" fill="#7E8594"/>
</svg>
