<svg width="34" height="20" viewBox="0 0 34 20" fill="none" xmlns="http://www.w3.org/2000/svg">
<path d="M0 10.0135C0 3.66246 2.19952 0 6.96598 0C11.7324 0 13.932 3.66246 13.932 10.0135C13.932 16.3645 11.7324 20 6.96598 20C2.19952 20 0 16.3375 0 10.0135ZM10.7535 11.6472V8.35275C10.7535 4.8473 9.6932 2.52913 6.96598 2.52913C4.23877 2.52913 3.17846 4.8473 3.17846 8.35275V11.6472C3.17846 15.1527 4.23877 17.4709 6.96598 17.4709C9.6932 17.4709 10.7535 15.1527 10.7535 11.6472Z" fill="#0C1528"/>
<path d="M18.7106 14.7551V19.0676H17.0659V8.45801H21.6203C23.5116 8.45801 24.6607 9.66002 24.6607 11.598C24.6607 13.1189 23.9629 14.2031 22.5943 14.5809L24.9073 19.0676H23.0752L20.9077 14.7551H18.7106ZM18.7106 13.3666H21.5044C22.3921 13.3666 22.9445 12.8883 22.9445 11.9904V11.2668C22.9445 10.369 22.3921 9.89061 21.5044 9.89061H18.7106V13.3642V13.3666Z" fill="#0C1528"/>
<path d="M25.4746 17.4485L26.6385 16.4206C27.3659 17.3332 28.2684 17.8091 29.4471 17.8091C30.8304 17.8091 31.5578 17.1296 31.5578 16.0576C31.5578 15.1892 31.0918 14.7108 29.8416 14.4802L28.9095 14.2914C26.8431 13.916 25.7952 12.9593 25.7952 11.2961C25.7952 9.41462 27.25 8.27148 29.5063 8.27148C31.1066 8.27148 32.2704 8.85041 33.0718 9.90769L31.9228 10.8914C31.3704 10.1824 30.5986 9.7188 29.4199 9.7188C28.155 9.7188 27.4423 10.2389 27.4423 11.2103C27.4423 12.1817 27.9947 12.5276 29.1882 12.7729L30.135 12.9471C32.2581 13.3813 33.205 14.3085 33.205 15.9717C33.205 17.9415 31.7797 19.2564 29.3484 19.2564C27.5878 19.2564 26.3648 18.5475 25.4771 17.446L25.4746 17.4485Z" fill="#0C1528"/>
</svg>
