<svg width="35" height="20" viewBox="0 0 35 20" fill="none" xmlns="http://www.w3.org/2000/svg">
<path d="M14.7042 20H1.25456V17.4346H6.7934V2.23774H6.575L1.88184 7.17551L0 5.45593L5.12997 0H9.84853V17.4346H14.7042V20Z" fill="#0C1528"/>
<path d="M18.9908 14.9255V19.3908H17.2969V8.40527H21.9875C23.9354 8.40527 25.1188 9.64988 25.1188 11.6565C25.1188 13.2313 24.4001 14.354 22.9906 14.7426L25.3728 19.3883H23.4859L21.2536 14.9229H18.9908V14.9255ZM18.9908 13.4878H21.8681C22.7824 13.4878 23.3513 12.9925 23.3513 12.0629V11.3136C23.3513 10.3839 22.7824 9.88864 21.8681 9.88864H18.9908V13.4853V13.4878Z" fill="#0C1528"/>
<path d="M26.6934 19.3908V8.40527H31.5033C33.3166 8.40527 34.4112 9.51526 34.4112 11.2221C34.4112 12.929 33.408 13.47 32.537 13.5742V13.6631C33.436 13.6936 34.7997 14.3971 34.7997 16.2412C34.7997 18.0852 33.601 19.3883 31.9833 19.3883H26.6934V19.3908ZM28.3873 13.0814H31.2037C32.1027 13.0814 32.6411 12.5861 32.6411 11.7174V11.2221C32.6411 10.3687 32.1027 9.85816 31.2037 9.85816H28.3873V13.0814ZM28.3873 17.9379H31.4881C32.4481 17.9379 33.0169 17.3994 33.0169 16.4698V15.9465C33.0169 15.0169 32.4481 14.4937 31.4881 14.4937H28.3873V17.9405V17.9379Z" fill="#0C1528"/>
</svg>
