<svg width="174" height="190" viewBox="0 0 174 190" fill="none" xmlns="http://www.w3.org/2000/svg">
<path d="M126.648 3.91797H72.7993V187.426H126.648V3.91797Z" fill="#E5E9F1"/>
<path d="M128.15 0H71.3076V9.66493H128.15V0Z" fill="#E5E9F1"/>
<path d="M92.3552 88.0815H39.998V187.207H92.3552V88.0815Z" fill="white" stroke="#D4DAE5" stroke-width="5"/>
<path d="M93.8464 78.2705H38.5063V89.9834H93.8464V78.2705Z" fill="white" stroke="#D4DAE5" stroke-width="5"/>
<path d="M48.54 103.085H55.5488" stroke="#D4DAE5" stroke-width="7.27"/>
<path d="M62.5576 103.085H69.5664" stroke="#D4DAE5" stroke-width="7.27"/>
<path d="M76.5645 103.085H83.5941" stroke="#D4DAE5" stroke-width="7.27"/>
<path d="M48.54 116.408H55.5488" stroke="#D4DAE5" stroke-width="7.27"/>
<path d="M62.5576 116.408H69.5664" stroke="#D4DAE5" stroke-width="7.27"/>
<path d="M76.5645 116.408H83.5941" stroke="#D4DAE5" stroke-width="7.27"/>
<path d="M48.54 129.719H55.5488" stroke="#D4DAE5" stroke-width="7.27"/>
<path d="M62.5576 129.719H69.5664" stroke="#D4DAE5" stroke-width="7.27"/>
<path d="M76.5645 129.719H83.5941" stroke="#D4DAE5" stroke-width="7.27"/>
<path d="M48.54 143.031H55.5488" stroke="#D4DAE5" stroke-width="7.27"/>
<path d="M62.5576 143.031H69.5664" stroke="#D4DAE5" stroke-width="7.27"/>
<path d="M76.5645 143.031H83.5941" stroke="#D4DAE5" stroke-width="7.27"/>
<path d="M48.54 156.342H55.5488" stroke="#D4DAE5" stroke-width="7.27"/>
<path d="M62.5576 156.342H69.5664" stroke="#D4DAE5" stroke-width="7.27"/>
<path d="M76.5645 156.342H83.5941" stroke="#D4DAE5" stroke-width="7.27"/>
<path d="M48.54 169.664H55.5488" stroke="#D4DAE5" stroke-width="7.27"/>
<path d="M62.5576 169.664H69.5664" stroke="#D4DAE5" stroke-width="7.27"/>
<path d="M76.5645 169.664H83.5941" stroke="#D4DAE5" stroke-width="7.27"/>
<path d="M171.204 67.0068H122.643V187.207H171.204V67.0068Z" fill="#F0F3F8" stroke="#D4DAE5" stroke-width="5"/>
<path d="M164.487 54.6982H129.359V66.9649H164.487V54.6982Z" fill="#F0F3F8" stroke="#D4DAE5" stroke-width="5"/>
<path d="M130.58 80.0254H163.267" stroke="white" stroke-width="7.27"/>
<path d="M130.58 95.249H163.267" stroke="white" stroke-width="7.27"/>
<path d="M130.58 110.462H163.267" stroke="white" stroke-width="7.27"/>
<path d="M130.58 125.675H163.267" stroke="white" stroke-width="7.27"/>
<path d="M130.58 140.889H163.267" stroke="white" stroke-width="7.27"/>
<path d="M130.58 156.112H163.267" stroke="white" stroke-width="7.27"/>
<path d="M130.58 171.325H163.267" stroke="white" stroke-width="7.27"/>
<path d="M146.923 53.0055V35.2534" stroke="#D4DAE5" stroke-width="5"/>
<path d="M15.1543 63.3184H34.1051" stroke="#D4DAE5" stroke-width="5"/>
<path d="M7.69712 63.3184H0" stroke="#D4DAE5" stroke-width="5"/>
<path d="M116.156 20.6675H108.458" stroke="#D4DAE5" stroke-width="5"/>
<path d="M122.883 187.197H22.8828" stroke="#D4DAE5" stroke-width="5"/>
<path d="M47.3508 49.2023C52.846 49.2023 57.3008 44.7301 57.3008 39.2134C57.3008 33.6968 52.846 29.2246 47.3508 29.2246C41.8556 29.2246 37.4009 33.6968 37.4009 39.2134C37.4009 44.7301 41.8556 49.2023 47.3508 49.2023Z" fill="white" stroke="#D4DAE5" stroke-width="5"/>
<path d="M68.9088 51.5742C77.935 51.5742 85.2521 44.2297 85.2521 35.1699C85.2521 26.1101 77.935 18.7656 68.9088 18.7656C59.8826 18.7656 52.5654 26.1101 52.5654 35.1699C52.5654 44.2297 59.8826 51.5742 68.9088 51.5742Z" fill="white" stroke="#D4DAE5" stroke-width="5"/>
<path d="M88.5691 49.2023C94.0643 49.2023 98.519 44.7301 98.519 39.2134C98.519 33.6968 94.0643 29.2246 88.5691 29.2246C83.0739 29.2246 78.6191 33.6968 78.6191 39.2134C78.6191 44.7301 83.0739 49.2023 88.5691 49.2023Z" fill="white" stroke="#D4DAE5" stroke-width="5"/>
</svg>
