<svg width="65" height="71" viewBox="0 0 65 71" fill="none" xmlns="http://www.w3.org/2000/svg">
<path d="M46.9129 1.45117H26.9663V69.4264H46.9129V1.45117Z" fill="#E5E9F1"/>
<path d="M47.4692 0H26.4138V3.58009H47.4692V0Z" fill="#E5E9F1"/>
<path d="M34.2101 32.627H14.8159V69.3451H34.2101V32.627Z" fill="white" stroke="#D4DAE5" stroke-width="2"/>
<path d="M34.7627 28.9927H14.2637V33.3314H34.7627V28.9927Z" fill="white" stroke="#D4DAE5" stroke-width="2"/>
<path d="M17.9802 38.1851H20.5764" stroke="#D4DAE5" stroke-width="2"/>
<path d="M23.1726 38.1851H25.7688" stroke="#D4DAE5" stroke-width="2"/>
<path d="M28.3611 38.1851H30.965" stroke="#D4DAE5" stroke-width="2"/>
<path d="M17.9802 43.1196H20.5764" stroke="#D4DAE5" stroke-width="2"/>
<path d="M23.1726 43.1196H25.7688" stroke="#D4DAE5" stroke-width="2"/>
<path d="M28.3611 43.1196H30.965" stroke="#D4DAE5" stroke-width="2"/>
<path d="M17.9802 48.0508H20.5764" stroke="#D4DAE5" stroke-width="2"/>
<path d="M23.1726 48.0508H25.7688" stroke="#D4DAE5" stroke-width="2"/>
<path d="M28.3611 48.0508H30.965" stroke="#D4DAE5" stroke-width="2"/>
<path d="M17.9802 52.9814H20.5764" stroke="#D4DAE5" stroke-width="2"/>
<path d="M23.1726 52.9814H25.7688" stroke="#D4DAE5" stroke-width="2"/>
<path d="M28.3611 52.9814H30.965" stroke="#D4DAE5" stroke-width="2"/>
<path d="M17.9802 57.9121H20.5764" stroke="#D4DAE5" stroke-width="2"/>
<path d="M23.1726 57.9121H25.7688" stroke="#D4DAE5" stroke-width="2"/>
<path d="M28.3611 57.9121H30.965" stroke="#D4DAE5" stroke-width="2"/>
<path d="M17.9802 62.8472H20.5764" stroke="#D4DAE5" stroke-width="2"/>
<path d="M23.1726 62.8472H25.7688" stroke="#D4DAE5" stroke-width="2"/>
<path d="M28.3611 62.8472H30.965" stroke="#D4DAE5" stroke-width="2"/>
<path d="M63.4173 24.8208H45.4294V69.3455H63.4173V24.8208Z" fill="#F0F3F8" stroke="#D4DAE5" stroke-width="2"/>
<path d="M60.9293 20.2612H47.9175V24.805H60.9293V20.2612Z" fill="#F0F3F8" stroke="#D4DAE5" stroke-width="2"/>
<path d="M48.3694 29.6431H60.4772" stroke="white" stroke-width="2"/>
<path d="M48.3694 35.2822H60.4772" stroke="white" stroke-width="2"/>
<path d="M48.3694 40.9175H60.4772" stroke="white" stroke-width="2"/>
<path d="M48.3694 46.5527H60.4772" stroke="white" stroke-width="2"/>
<path d="M48.3694 52.188H60.4772" stroke="white" stroke-width="2"/>
<path d="M48.3694 57.8271H60.4772" stroke="white" stroke-width="2"/>
<path d="M48.3694 63.4624H60.4772" stroke="white" stroke-width="2"/>
<path d="M54.4233 19.6343V13.0586" stroke="#D4DAE5" stroke-width="2"/>
<path d="M5.61353 23.4546H12.6333" stroke="#D4DAE5" stroke-width="2"/>
<path d="M2.85117 23.4546H0" stroke="#D4DAE5" stroke-width="2"/>
<path d="M43.0265 7.65576H40.1753" stroke="#D4DAE5" stroke-width="2"/>
<path d="M45.5183 69.3413H8.47632" stroke="#D4DAE5" stroke-width="2"/>
<path d="M17.5397 18.2253C19.5752 18.2253 21.2253 16.5688 21.2253 14.5253C21.2253 12.4818 19.5752 10.8252 17.5397 10.8252C15.5041 10.8252 13.854 12.4818 13.854 14.5253C13.854 16.5688 15.5041 18.2253 17.5397 18.2253Z" fill="white" stroke="#D4DAE5" stroke-width="2"/>
<path d="M25.5253 19.1041C28.8688 19.1041 31.5792 16.3836 31.5792 13.0276C31.5792 9.6717 28.8688 6.95117 25.5253 6.95117C22.1819 6.95117 19.4714 9.6717 19.4714 13.0276C19.4714 16.3836 22.1819 19.1041 25.5253 19.1041Z" fill="white" stroke="#D4DAE5" stroke-width="2"/>
<path d="M32.8077 18.2253C34.8433 18.2253 36.4934 16.5688 36.4934 14.5253C36.4934 12.4818 34.8433 10.8252 32.8077 10.8252C30.7722 10.8252 29.1221 12.4818 29.1221 14.5253C29.1221 16.5688 30.7722 18.2253 32.8077 18.2253Z" fill="white" stroke="#D4DAE5" stroke-width="2"/>
</svg>
