<svg width="1309" height="396" viewBox="0 0 1309 396" fill="none" xmlns="http://www.w3.org/2000/svg">
<path d="M0 388.831V0H172.585C237.654 0 276.896 39.2584 276.896 99.7509C276.896 160.243 240.858 179.305 209.674 183.058V186.218C241.959 187.255 290.861 212.193 290.861 277.475C290.861 342.758 247.865 388.88 189.753 388.88H0V388.831ZM60.765 165.527H161.873C194.158 165.527 213.478 148.046 213.478 117.232V99.7509C213.478 69.5293 194.108 51.4557 161.873 51.4557H60.765V165.527ZM60.765 337.375H172.084C206.521 337.375 226.943 318.265 226.943 285.376V266.809C226.943 233.921 206.521 215.353 172.084 215.353H60.765V337.375Z" fill="#F9F9F9"/>
<path d="M306.028 309.277C306.028 252.538 348.523 222.81 430.761 222.81H485.069V197.872C485.069 161.28 465.198 140.046 423.253 140.046C388.316 140.046 366.793 157.034 352.277 180.342L317.34 149.034C336.16 116.689 370.547 92.7881 426.507 92.7881C501.787 92.7881 543.732 129.923 543.732 193.576V341.573H574.916V388.782H542.631C510.346 388.782 493.679 368.634 489.925 340.486H487.222C475.91 376.535 443.675 395.646 401.18 395.646C340.415 395.646 306.028 361.671 306.028 309.178V309.277ZM485.069 303.45V259.945H431.862C387.215 259.945 366.242 274.809 366.242 300.24V310.857C366.242 337.918 385.613 351.696 417.848 351.696C456.038 351.696 485.069 332.585 485.069 303.401V303.45Z" fill="#F9F9F9"/>
<path d="M592.385 388.831V99.7511H650.998V146.96H653.15C666.064 115.652 691.341 93.3809 735.939 93.3809C796.153 93.3809 831.641 133.676 831.641 204.786V388.881H773.028V212.786C773.028 166.12 754.208 142.219 716.017 142.219C682.131 142.219 650.948 158.663 650.948 193.675V388.881H592.335L592.385 388.831Z" fill="#F9F9F9"/>
<path d="M944.961 388.832C904.117 388.832 883.145 365.474 883.145 327.845V146.96H836.896V99.7516H862.173C882.044 99.7516 888.501 91.8012 888.501 72.1473V20.1484H941.708V99.7022H1003.02V146.911H941.708V341.573H998.719V388.782H944.961V388.832Z" fill="#F9F9F9"/>
<path d="M1155.49 89.085C1070.7 89.085 1001.97 156.886 1001.97 240.538C1001.97 324.191 1070.7 391.992 1155.49 391.992C1240.28 391.992 1309 324.191 1309 240.538C1309 156.886 1240.28 89.085 1155.49 89.085ZM1155.49 338.512C1100.63 338.512 1056.18 294.661 1056.18 240.538C1056.18 186.416 1100.63 142.565 1155.49 142.565C1210.34 142.565 1254.79 186.416 1254.79 240.538C1254.79 294.661 1210.34 338.512 1155.49 338.512Z" fill="#F9F9F9"/>
</svg>
