<svg width="59" height="51" viewBox="0 0 59 51" fill="none" xmlns="http://www.w3.org/2000/svg">
<path d="M3.22088 12.3533V20.8153H0V0H8.91978C12.6235 0 14.876 2.35804 14.876 6.1621C14.876 9.14402 13.507 11.2747 10.83 12.0123L15.3615 20.8153H11.7692L7.52158 12.3533H3.22088ZM3.22088 9.62779H8.69161C10.4294 9.62779 11.5119 8.69197 11.5119 6.92873V5.50915C11.5119 3.74855 10.4294 2.81009 8.69161 2.81009H3.22088V9.62515V9.62779Z" fill="#5110A4"/>
<path d="M16.1152 13.0615C16.1152 8.14984 18.8241 4.99609 23.1831 4.99609C27.5422 4.99609 30.0521 8.34811 30.0521 12.6915V13.8282H19.3361V14.3675C19.3361 16.8947 20.8192 18.6262 23.5254 18.6262C25.4356 18.6262 26.802 17.6904 27.6855 16.2127L29.5108 17.9733C28.3992 19.903 26.1467 21.1825 23.2415 21.1825C18.8532 21.1825 16.1152 18.0023 16.1152 13.0615ZM19.3361 11.7847H26.7755V11.5019C26.7755 9.03014 25.4064 7.41229 23.2123 7.41229C21.0182 7.41229 19.3361 9.11738 19.3361 11.5865V11.7847Z" fill="#5110A4"/>
<path d="M31.9512 26.779V5.33982H35.058V7.86705H35.1721C35.8566 6.02186 37.4803 4.96973 39.5895 4.96973C43.4949 4.96973 45.7739 8.00716 45.7739 13.0643C45.7739 18.1214 43.4949 21.1852 39.5895 21.1852C37.4803 21.1852 35.9123 20.0776 35.1721 18.2879H35.058V26.779H31.9512ZM42.4973 14.3702V11.7583C42.4973 9.2602 40.9585 7.61327 38.6503 7.61327C36.626 7.61327 35.058 8.72092 35.058 10.3678V15.6787C35.058 17.4975 36.626 18.576 38.6503 18.576C40.9585 18.576 42.4973 16.9 42.4973 14.3728V14.3702Z" fill="#5110A4"/>
<path d="M47.334 19.2819V18.8272C47.334 17.7196 47.9893 16.8975 49.414 16.8975C50.8387 16.8975 51.4649 17.7222 51.4649 18.8272V19.2819C51.4649 20.3896 50.8387 21.1853 49.414 21.1853C47.9893 21.1853 47.334 20.3896 47.334 19.2819Z" fill="#5110A4"/>
<path d="M0 49.6297V28.8145H9.14794C12.597 28.8145 14.677 30.9161 14.677 34.1544C14.677 37.3928 12.7668 38.4132 11.1139 38.6141V38.7833C12.8252 38.8388 15.4173 40.1738 15.4173 43.6685C15.4173 47.1633 13.1382 49.6324 10.058 49.6324H0V49.6297ZM3.22088 37.6756H8.58018C10.2914 37.6756 11.3155 36.7398 11.3155 35.0902V34.1544C11.3155 32.5366 10.2888 31.569 8.58018 31.569H3.22088V37.6756ZM3.22088 46.8752H9.12141C10.9468 46.8752 12.0292 45.8521 12.0292 44.0915V43.0975C12.0292 41.3369 10.9468 40.3429 9.12141 40.3429H3.22088V46.8752Z" fill="#5110A4"/>
<path d="M16.7227 45.3715C16.7227 42.3341 18.9752 40.7427 23.3342 40.7427H26.2129V39.4077C26.2129 37.4488 25.1596 36.3121 22.9363 36.3121C21.0844 36.3121 19.9435 37.2215 19.1741 38.4692L17.3223 36.7932C18.3198 35.0617 20.1425 33.7822 23.1087 33.7822C27.099 33.7822 29.3223 35.7702 29.3223 39.1777V47.1004H30.9752V49.6276H29.2639C27.5527 49.6276 26.6692 48.5491 26.4702 47.0422H26.3269C25.7273 48.972 24.0187 49.9951 21.7662 49.9951C18.5453 49.9951 16.7227 48.1763 16.7227 45.3662V45.3715ZM26.2129 45.0596V42.7306H23.3926C21.026 42.7306 19.9144 43.5263 19.9144 44.8878V45.4561C19.9144 46.9048 20.9411 47.6423 22.6497 47.6423C24.674 47.6423 26.2129 46.6193 26.2129 45.0569V45.0596Z" fill="#5110A4"/>
<path d="M31.6941 47.0736L33.7449 45.2284C34.8858 46.677 36.2813 47.4992 38.1332 47.4992C40.0991 47.4992 41.0967 46.7035 41.0967 45.313C41.0967 44.2344 40.4706 43.5233 38.7593 43.2695L37.3346 43.1003C34.2278 42.6747 32.2618 41.3397 32.2618 38.5296C32.2618 35.5186 34.6284 33.7871 37.9899 33.7871C40.7836 33.7871 42.3782 34.7229 43.7472 36.2588L41.8369 38.0776C41.0092 37.1127 39.6985 36.2879 37.9899 36.2879C36.1646 36.2879 35.2545 37.0836 35.2545 38.3049C35.2545 39.5262 36.0531 40.1237 37.7617 40.4065L39.1865 40.5757C42.5771 41.0595 44.0894 42.5637 44.0894 45.0618C44.0894 48.0437 41.6963 50.0026 37.9899 50.0026C35.0821 50.0026 33.1745 48.895 31.6914 47.0788L31.6941 47.0736Z" fill="#5110A4"/>
<path d="M45.0635 41.876C45.0635 36.9643 47.7723 33.8105 52.1314 33.8105C56.4904 33.8105 59.0003 37.1626 59.0003 41.5059V42.6426H48.2844V43.1819C48.2844 45.7091 49.7674 47.4407 52.4736 47.4407C54.3839 47.4407 55.7502 46.5048 56.6337 45.0271L58.4591 46.7877C57.3474 48.7175 55.0949 49.997 52.1897 49.997C47.8015 49.997 45.0635 46.8168 45.0635 41.876ZM48.2844 40.5992H55.7237V40.3163C55.7237 37.8446 54.3547 36.2267 52.1606 36.2267C49.9664 36.2267 48.2844 37.9318 48.2844 40.4009V40.5992Z" fill="#5110A4"/>
</svg>
