<svg width="198" height="197" viewBox="0 0 198 197" fill="none" xmlns="http://www.w3.org/2000/svg">
<path d="M171.062 82.1687L197.641 71.084L168.122 0L97.1929 29.5741L108.642 57.17C108.775 57.3026 108.897 57.4131 109.04 57.5126C109.051 57.5126 109.073 57.5347 109.095 57.5568C109.228 57.6563 109.372 57.7447 109.515 57.822C109.526 57.822 109.538 57.8331 109.549 57.8331C109.814 57.9768 110.101 58.0873 110.4 58.1536C110.455 58.1646 110.499 58.1867 110.543 58.1978C110.643 58.2199 110.742 58.2199 110.853 58.242C110.963 58.242 111.074 58.2752 111.184 58.2641C111.284 58.2641 111.361 58.2641 111.449 58.2641C111.593 58.2641 111.726 58.242 111.858 58.2199C111.936 58.2088 112.002 58.1978 112.079 58.1867C112.289 58.1425 112.499 58.0762 112.709 57.9989C113.803 57.5347 114.544 56.6174 114.853 55.5565C115.826 51.9094 118.412 48.7487 122.17 47.1793C128.591 44.5048 135.962 47.5551 138.636 53.9871C141.3 60.4192 138.261 67.8127 131.84 70.4872C128.093 72.0455 124.026 71.6587 120.755 69.7799C119.793 69.2494 118.611 69.1278 117.517 69.5809C117.318 69.6694 117.13 69.7799 116.942 69.8904C116.876 69.9346 116.821 69.9788 116.765 70.023C116.655 70.1004 116.544 70.1998 116.445 70.2772C116.378 70.3435 116.312 70.3988 116.257 70.4651C116.18 70.5535 116.102 70.6309 116.036 70.7193C115.981 70.7966 115.903 70.885 115.848 70.9624C115.815 71.0066 115.804 71.0508 115.782 71.095C115.616 71.3492 115.505 71.6255 115.417 71.9239C115.417 71.9349 115.406 71.946 115.406 71.957C115.362 72.1118 115.329 72.2775 115.295 72.4433C115.295 72.4654 115.295 72.4875 115.295 72.5207C115.273 72.6865 115.262 72.8522 115.262 73.0291L126.723 100.636L153.324 89.5512C155.125 89.0207 157.093 89.8938 157.822 91.6842C158.275 92.7783 158.165 93.9498 157.634 94.9223C155.755 98.1936 155.369 102.272 156.927 106.029C159.601 112.461 166.973 115.511 173.394 112.826C179.826 110.151 182.865 102.758 180.19 96.3259C178.632 92.5683 175.471 89.9822 171.835 88.9986C170.786 88.6892 169.857 87.9487 169.404 86.8436C168.653 85.0643 169.415 83.0529 171.073 82.1466L171.062 82.1687Z" fill="#F0F3F8"/>
<path d="M79.8308 193.934V165.189C79.8308 165.189 81.577 161.718 83.5552 161.718C84.7267 161.718 85.7766 162.282 86.4618 163.144C88.7716 166.139 92.3744 168.062 96.4303 168.062C103.382 168.062 109.018 162.415 109.018 155.441C109.018 148.467 103.382 142.82 96.4303 142.82C92.3633 142.82 88.7716 144.743 86.4618 147.727C85.7876 148.589 84.7377 149.153 83.5552 149.153C81.577 149.153 79.8308 145.671 79.8308 145.671V116.937H51.0303C49.1515 116.738 47.6817 115.169 47.6817 113.235C47.6817 112.052 48.2453 111.014 49.0963 110.317C52.0692 108.008 54.0032 104.405 54.0032 100.338C54.0032 93.3642 48.3558 87.7168 41.4044 87.7168C34.4529 87.7168 28.8055 93.3642 28.8055 100.338C28.8055 104.405 30.7395 108.008 33.7124 110.317C34.5745 111.003 35.1381 112.041 35.1381 113.235C35.1381 115.169 33.6682 116.738 31.7894 116.937H3V193.923H79.8308V193.934Z" fill="#E5E9F1" stroke="#D4DAE5" stroke-width="5"/>
<path d="M96.3972 65.6023C92.3412 65.6023 88.7384 67.5363 86.4286 70.5203C85.7434 71.3823 84.7046 71.9459 83.522 71.9459C81.5991 71.9459 80.0297 70.4761 79.8308 68.5973V39.7305H3V116.716H32.8394C33.0051 116.65 33.1488 116.572 33.3035 116.484C33.3256 116.484 33.3477 116.462 33.3588 116.462C33.5025 116.373 33.6461 116.274 33.7677 116.163C33.7677 116.163 33.7787 116.141 33.8008 116.141C34.0329 115.942 34.2429 115.721 34.4197 115.478C34.4529 115.434 34.486 115.401 34.5192 115.357C34.5745 115.279 34.6297 115.18 34.6739 115.091C34.7292 114.992 34.7844 114.892 34.8286 114.793C34.8728 114.705 34.895 114.627 34.9281 114.539C34.9723 114.406 35.0055 114.285 35.0497 114.152C35.0607 114.075 35.0828 114.008 35.0939 113.931C35.127 113.721 35.1602 113.5 35.1602 113.279C35.1602 112.096 34.5966 111.058 33.7345 110.361C30.7617 108.052 28.8276 104.449 28.8276 100.382C28.8276 93.4081 34.475 87.7608 41.4265 87.7608C48.3779 87.7608 54.0253 93.4081 54.0253 100.382C54.0253 104.449 52.0913 108.052 49.1184 110.361C48.2564 111.047 47.7038 112.085 47.7038 113.268C47.7038 113.489 47.7259 113.71 47.7701 113.92C47.7701 113.997 47.8032 114.064 47.8143 114.141C47.8474 114.274 47.8806 114.395 47.9248 114.528C47.9469 114.616 47.9911 114.694 48.0243 114.782C48.0685 114.881 48.1237 114.981 48.179 115.08C48.2232 115.169 48.2785 115.268 48.3337 115.346C48.3669 115.39 48.4 115.423 48.4332 115.467C48.61 115.71 48.82 115.931 49.0521 116.13C49.0631 116.13 49.0742 116.152 49.0852 116.152C49.2178 116.263 49.3505 116.351 49.4941 116.44C49.5162 116.451 49.5383 116.462 49.5494 116.473C49.7041 116.561 49.8478 116.639 50.0136 116.705H79.8529V87.8381C80.0629 85.9594 81.6212 84.4895 83.5441 84.4895C84.7267 84.4895 85.7655 85.0531 86.4507 85.9152C88.7605 88.8991 92.3523 90.8331 96.4193 90.8331C103.371 90.8331 109.018 85.1857 109.018 78.2011C109.018 71.2165 103.371 65.5802 96.4193 65.5802L96.3972 65.6023Z" fill="white" stroke="#D4DAE5" stroke-width="5"/>
<path d="M127.629 116.926C126.06 117.368 124.911 118.794 124.911 120.507C124.911 121.689 125.463 122.739 126.336 123.425C129.309 125.734 131.232 129.348 131.232 133.426C131.232 140.4 125.574 146.047 118.611 146.047C111.649 146.047 106.012 140.378 106.023 133.404C106.023 129.337 107.957 125.723 110.941 123.413C111.803 122.728 112.367 121.678 112.367 120.496C112.367 118.783 111.218 117.357 109.659 116.904L80.2178 116.86L80.1847 145.738C80.3836 147.628 81.9419 149.108 83.8759 149.108C85.0584 149.108 86.1083 148.545 86.7935 147.683C89.0922 144.699 92.7061 142.765 96.7621 142.776C103.725 142.776 109.361 148.445 109.361 155.419C109.361 162.404 103.702 168.051 96.74 168.04C92.673 168.04 89.0701 166.095 86.7714 163.111C86.0862 162.249 85.0474 161.685 83.8648 161.674C81.9308 161.674 80.3615 163.155 80.1625 165.045L80.1294 193.923L157.026 194L157.115 116.948L127.64 116.915L127.629 116.926Z" fill="white" stroke="#D4DAE5" stroke-width="5"/>
</svg>
