<svg width="72" height="71" viewBox="0 0 72 71" fill="none" xmlns="http://www.w3.org/2000/svg">
<path d="M61.6408 29.6485L71.2312 25.6489L60.5801 0L34.9871 10.6711L39.1183 20.6283C39.1662 20.6762 39.21 20.7161 39.2619 20.752C39.2659 20.752 39.2738 20.7599 39.2818 20.7679C39.3297 20.8038 39.3815 20.8357 39.4333 20.8636C39.4373 20.8636 39.4413 20.8676 39.4453 20.8676C39.541 20.9195 39.6447 20.9593 39.7524 20.9833C39.7723 20.9872 39.7882 20.9952 39.8042 20.9992C39.8401 21.0072 39.876 21.0072 39.9159 21.0152C39.9557 21.0152 39.9956 21.0271 40.0355 21.0231C40.0714 21.0231 40.0993 21.0231 40.1312 21.0231C40.183 21.0231 40.2309 21.0152 40.2787 21.0072C40.3066 21.0032 40.3306 20.9992 40.3585 20.9952C40.4343 20.9793 40.51 20.9553 40.5858 20.9274C40.9806 20.7599 41.2477 20.429 41.3594 20.0461C41.7103 18.7302 42.6434 17.5897 43.9993 17.0235C46.3161 16.0584 48.9759 17.1591 49.9409 19.4799C50.902 21.8007 49.8053 24.4685 47.4885 25.4335C46.1367 25.9958 44.6692 25.8562 43.4888 25.1783C43.1419 24.9869 42.7152 24.943 42.3204 25.1065C42.2487 25.1384 42.1809 25.1783 42.1131 25.2182C42.0891 25.2341 42.0692 25.2501 42.0493 25.266C42.0094 25.294 41.9695 25.3298 41.9336 25.3578C41.9097 25.3817 41.8858 25.4016 41.8658 25.4255C41.8379 25.4574 41.81 25.4854 41.7861 25.5173C41.7661 25.5452 41.7382 25.5771 41.7183 25.605C41.7063 25.6209 41.7023 25.6369 41.6944 25.6528C41.6345 25.7446 41.5947 25.8443 41.5628 25.9519C41.5628 25.9559 41.5588 25.9599 41.5588 25.9639C41.5428 26.0197 41.5309 26.0795 41.5189 26.1393C41.5189 26.1473 41.5189 26.1553 41.5189 26.1673C41.5109 26.2271 41.5069 26.2869 41.5069 26.3507L45.6422 36.312L55.2406 32.3123C55.8906 32.1209 56.6004 32.4359 56.8636 33.0819C57.0271 33.4767 56.9872 33.8994 56.7958 34.2503C56.1179 35.4307 55.9783 36.9021 56.5406 38.258C57.5056 40.5788 60.1654 41.6794 62.4822 40.7104C64.8031 39.7454 65.8997 37.0776 64.9347 34.7568C64.3724 33.4009 63.2319 32.4678 61.92 32.1129C61.5411 32.0013 61.2062 31.7341 61.0427 31.3353C60.7715 30.6933 61.0467 29.9675 61.6448 29.6405L61.6408 29.6485Z" fill="#F0F3F8"/>
<path d="M28.7225 69.9761V59.6041C28.7225 59.6041 29.3525 58.352 30.0663 58.352C30.489 58.352 30.8678 58.5554 31.1151 58.8664C31.9485 59.9471 33.2485 60.6409 34.712 60.6409C37.2202 60.6409 39.254 58.6032 39.254 56.087C39.254 53.5708 37.2202 51.533 34.712 51.533C33.2445 51.533 31.9485 52.2269 31.1151 53.3036C30.8718 53.6146 30.493 53.818 30.0663 53.818C29.3525 53.818 28.7225 52.5619 28.7225 52.5619V42.1939H18.3305C17.6526 42.1221 17.1223 41.5558 17.1223 40.858C17.1223 40.4313 17.3256 40.0565 17.6327 39.8052C18.7054 38.9718 19.4032 37.6718 19.4032 36.2043C19.4032 33.6881 17.3655 31.6504 14.8572 31.6504C12.349 31.6504 10.3113 33.6881 10.3113 36.2043C10.3113 37.6718 11.0091 38.9718 12.0818 39.8052C12.3928 40.0525 12.5962 40.4273 12.5962 40.858C12.5962 41.5558 12.0659 42.1221 11.3879 42.1939H1V69.9721H28.7225V69.9761Z" fill="#E5E9F1" stroke="#D4DAE5" stroke-width="2"/>
<path d="M34.7 23.6711C33.2365 23.6711 31.9365 24.369 31.1031 25.4457C30.8559 25.7567 30.481 25.9601 30.0543 25.9601C29.3605 25.9601 28.7942 25.4297 28.7225 24.7518V14.3359H1V42.1142H11.7668C11.8266 42.0903 11.8784 42.0624 11.9343 42.0305C11.9422 42.0305 11.9502 42.0225 11.9542 42.0225C12.006 41.9906 12.0579 41.9547 12.1017 41.9148C12.1017 41.9148 12.1057 41.9069 12.1137 41.9069C12.1974 41.8351 12.2732 41.7553 12.337 41.6676C12.349 41.6516 12.3609 41.6397 12.3729 41.6237C12.3928 41.5958 12.4128 41.5599 12.4287 41.528C12.4487 41.4921 12.4686 41.4563 12.4846 41.4204C12.5005 41.3885 12.5085 41.3606 12.5205 41.3286C12.5364 41.2808 12.5484 41.2369 12.5643 41.1891C12.5683 41.1612 12.5763 41.1372 12.5803 41.1093C12.5922 41.0336 12.6042 40.9538 12.6042 40.8741C12.6042 40.4474 12.4008 40.0725 12.0898 39.8213C11.0171 38.9879 10.3192 37.6879 10.3192 36.2204C10.3192 33.7042 12.357 31.6665 14.8652 31.6665C17.3735 31.6665 19.4112 33.7042 19.4112 36.2204C19.4112 37.6879 18.7133 38.9879 17.6407 39.8213C17.3296 40.0685 17.1302 40.4434 17.1302 40.8701C17.1302 40.9498 17.1382 41.0296 17.1542 41.1053C17.1542 41.1333 17.1661 41.1572 17.1701 41.1851C17.1821 41.2329 17.194 41.2768 17.21 41.3247C17.218 41.3566 17.2339 41.3845 17.2459 41.4164C17.2618 41.4523 17.2818 41.4882 17.3017 41.524C17.3176 41.5559 17.3376 41.5918 17.3575 41.6197C17.3695 41.6357 17.3815 41.6477 17.3934 41.6636C17.4572 41.7513 17.533 41.8311 17.6167 41.9029C17.6207 41.9029 17.6247 41.9109 17.6287 41.9109C17.6765 41.9507 17.7244 41.9826 17.7762 42.0145C17.7842 42.0185 17.7922 42.0225 17.7962 42.0265C17.852 42.0584 17.9038 42.0863 17.9637 42.1102H28.7304V31.6944C28.8062 31.0165 29.3685 30.4861 30.0623 30.4861C30.489 30.4861 30.8639 30.6895 31.1111 31.0005C31.9445 32.0772 33.2405 32.775 34.708 32.775C37.2163 32.775 39.254 30.7373 39.254 28.2171C39.254 25.6969 37.2163 23.6632 34.708 23.6632L34.7 23.6711Z" fill="white" stroke="#D4DAE5" stroke-width="2"/>
<path d="M45.9692 42.1899C45.4029 42.3495 44.9882 42.8639 44.9882 43.482C44.9882 43.9086 45.1876 44.2875 45.5026 44.5347C46.5753 45.3681 47.2692 46.6721 47.2692 48.1436C47.2692 50.6598 45.2275 52.6975 42.7152 52.6975C40.203 52.6975 38.1693 50.6518 38.1732 48.1356C38.1732 46.6681 38.8711 45.3641 39.9478 44.5307C40.2588 44.2835 40.4622 43.9047 40.4622 43.478C40.4622 42.8599 40.0475 42.3455 39.4852 42.182L28.862 42.166L28.85 52.5859C28.9218 53.2678 29.4841 53.8021 30.1819 53.8021C30.6086 53.8021 30.9874 53.5987 31.2347 53.2877C32.0641 52.211 33.3681 51.5132 34.8316 51.5172C37.3438 51.5172 39.3775 53.5629 39.3775 56.0791C39.3775 58.5993 37.3358 60.637 34.8236 60.633C33.3561 60.633 32.0561 59.9312 31.2267 58.8545C30.9794 58.5435 30.6046 58.3401 30.1779 58.3361C29.4801 58.3361 28.9138 58.8705 28.842 59.5524L28.8301 69.9722L56.5765 70.0001L56.6084 42.1979L45.9732 42.186L45.9692 42.1899Z" fill="white" stroke="#D4DAE5" stroke-width="2"/>
</svg>
