<svg width="529" height="160" viewBox="0 0 529 160" fill="none" xmlns="http://www.w3.org/2000/svg">
<path d="M0 156.966V0H69.6702C95.938 0 111.779 15.8481 111.779 40.2682C111.779 64.6882 97.2312 72.383 84.6429 73.8981V75.1739C97.6757 75.5925 117.417 85.6595 117.417 112.013C117.417 138.367 100.06 156.986 76.6009 156.986H0V156.966ZM24.5301 66.8212H65.3461C78.379 66.8212 86.1785 59.7643 86.1785 47.3251V40.2682C86.1785 28.0681 78.3588 20.772 65.3461 20.772H24.5301V66.8212ZM24.5301 136.194H69.4682C83.3699 136.194 91.6139 128.479 91.6139 115.203V107.707C91.6139 94.4308 83.3699 86.9354 69.4682 86.9354H24.5301V136.194Z" fill="#0C1528"/>
<path d="M123.54 124.851C123.54 101.946 140.695 89.9457 173.893 89.9457H195.817V79.8786C195.817 65.107 187.795 56.5351 170.862 56.5351C156.759 56.5351 148.07 63.3926 142.21 72.8018L128.107 60.1632C135.704 47.1059 149.586 37.4575 172.176 37.4575C202.566 37.4575 219.498 52.4484 219.498 78.1443V137.889H232.087V156.946H219.054C206.021 156.946 199.292 148.813 197.777 137.45H196.686C192.119 152.002 179.106 159.717 161.952 159.717C137.422 159.717 123.54 146.002 123.54 124.812V124.851ZM195.817 122.499V104.937H174.338C156.314 104.937 147.848 110.937 147.848 121.203V125.489C147.848 136.414 155.668 141.975 168.68 141.975C184.097 141.975 195.817 134.261 195.817 122.479V122.499Z" fill="#0C1528"/>
<path d="M239.138 156.967V40.2688H262.8V59.3265H263.668C268.882 46.6878 279.086 37.6973 297.089 37.6973C321.397 37.6973 335.723 53.964 335.723 82.67V156.987H312.062V85.8995C312.062 67.0611 304.464 57.4127 289.047 57.4127C275.368 57.4127 262.779 64.051 262.779 78.1847V156.987H239.118L239.138 156.967Z" fill="#0C1528"/>
<path d="M381.468 156.967C364.98 156.967 356.514 147.537 356.514 132.347V59.3262H337.843V40.2686H348.047C356.069 40.2686 358.676 37.0591 358.676 29.1251V8.13379H380.155V40.2486H404.907V59.3063H380.155V137.889H403.169V156.947H381.468V156.967Z" fill="#0C1528"/>
<path d="M466.454 35.9629C432.225 35.9629 404.482 63.3333 404.482 97.1027C404.482 130.872 432.225 158.243 466.454 158.243C500.683 158.243 528.426 130.872 528.426 97.1027C528.426 63.3333 500.683 35.9629 466.454 35.9629ZM466.454 136.653C444.308 136.653 426.366 118.951 426.366 97.1027C426.366 75.2542 444.308 57.5522 466.454 57.5522C488.6 57.5522 506.543 75.2542 506.543 97.1027C506.543 118.951 488.6 136.653 466.454 136.653Z" fill="#0C1528"/>
</svg>
