<svg width="26" height="26" viewBox="0 0 26 26" fill="none" xmlns="http://www.w3.org/2000/svg">
<path d="M26 13C26 20.1855 20.1845 26 13 26C5.81547 26 0 20.1845 0 13C0 5.81547 5.81547 0 13 0C20.1845 0 26 5.81547 26 13Z" fill="#FF5E18"/>
<path d="M18.7463 8.8746C19.1429 9.2712 19.1429 9.9146 18.7463 10.3112L11.933 17.125C11.5364 17.5216 10.8935 17.5216 10.4964 17.125L7.25302 13.8811C6.85642 13.4845 6.85642 12.8416 7.25302 12.445C7.64962 12.0484 8.29251 12.0484 8.68911 12.445L11.2145 14.9704L17.3097 8.8746C17.7063 8.478 18.3497 8.478 18.7463 8.8746Z" fill="white"/>
</svg>
