<svg width="26" height="21" viewBox="0 0 26 21" fill="none" xmlns="http://www.w3.org/2000/svg">
<path d="M26 5.12709C26 3.77258 24.9208 2.67893 23.5842 2.67893H21.8416L21.8218 2.65886L19.4951 0.301003C19.3069 0.110368 19.0495 0 18.7822 0H2.41584C1.07921 0 0 1.09365 0 2.44816V18.5518C0 19.9064 1.07921 21 2.41584 21H23.5842C24.9208 21 26 19.9064 26 18.5518V5.12709ZM17.6535 1.33445L17.6733 1.35451L18.9802 2.67893H16.6139V2.65886L15.297 1.33445H17.6634H17.6535ZM13.2475 1.33445L13.2673 1.35451L14.5743 2.67893H12.2079L12.1881 2.65886L10.8812 1.33445H13.2574H13.2475ZM23.9802 18.0602C23.9802 18.5518 23.5842 18.9532 23.099 18.9532H2.90099C2.41584 18.9532 2.0198 18.5518 2.0198 18.0602V2.94983C2.0198 2.45819 2.41584 2.05686 2.90099 2.05686H8.72277L8.74257 2.07692L11.0693 4.43478C11.2574 4.62542 11.5149 4.73579 11.7822 4.73579H23.0891C23.5743 4.73579 23.9703 5.13712 23.9703 5.62876V18.0602H23.9802Z" fill="#7E8594"/>
</svg>
