<svg width="64" height="91" viewBox="0 0 64 91" fill="none" xmlns="http://www.w3.org/2000/svg">
<g clip-path="url(#clip0_162_2685)">
<path d="M5.23242 44.9746V28.2635C5.23242 13.6786 17.1107 1.8125 31.7052 1.8125C46.2997 1.8125 58.178 13.6786 58.178 28.2635V44.9746" stroke="#D4DAE5" stroke-width="4"/>
<path d="M61.7435 46.2643C61.7435 49.4312 59.1721 52.0006 56.0015 52.0006H55.5222C52.3517 52.0006 49.7803 49.4312 49.7803 46.2643V35.7476C49.7803 32.5806 52.3517 30.0112 55.5222 30.0112H56.0015C59.1721 30.0112 61.7435 32.5806 61.7435 35.7476V46.2643Z" fill="#E5E9F1"/>
<path d="M1.81738 90.1437V79.8013C1.81738 75.2301 6.00649 71.5254 11.1742 71.5254H52.2365C57.4042 71.5254 61.5933 75.2301 61.5933 79.8013V90.1437" fill="white"/>
<path d="M1.81738 90.1437V79.8013C1.81738 75.2301 6.00649 71.5254 11.1742 71.5254H52.2365C57.4042 71.5254 61.5933 75.2301 61.5933 79.8013V90.1437" stroke="#D4DAE5" stroke-width="4"/>
<path d="M52.611 28.2637V44.9748C52.611 56.5123 43.2492 65.8637 31.7054 65.8637C20.1566 65.8637 10.7998 56.5123 10.7998 44.9748V28.2637" fill="white"/>
<path d="M52.611 28.2637V44.9748C52.611 56.5123 43.2492 65.8637 31.7054 65.8637C20.1566 65.8637 10.7998 56.5123 10.7998 44.9748V28.2637" stroke="#D4DAE5" stroke-width="4"/>
<path d="M46.3451 6.23926H24.2362C20.851 6.23926 17.8801 7.9771 16.1526 10.6112H12.8322C12.5377 10.6112 12.2481 10.6312 11.9635 10.666C8.26367 14.804 5.85206 20.1071 5.34277 25.953V45.3332H10.6154V29.0801C10.6154 26.1671 12.977 23.8069 15.8879 23.8069H52.5164C57.8589 23.8069 62.1878 19.4797 62.1878 14.1467V6.23926H46.3501H46.3451Z" fill="#F0F3F8"/>
<path d="M10.6152 45.3332V29.0801C10.6152 26.1671 12.9769 23.8069 15.8878 23.8069H52.5163C57.8588 23.8069 62.1877 19.4797 62.1877 14.1467V6.23926" stroke="#D4DAE5" stroke-width="4"/>
<path d="M13.1868 46.2643C13.1868 49.4312 10.6154 52.0006 7.44488 52.0006H6.96556C3.79502 52.0006 1.22363 49.4312 1.22363 46.2643V35.7476C1.22363 32.5806 3.79502 30.0112 6.96556 30.0112H7.44488C10.6154 30.0112 13.1868 32.5806 13.1868 35.7476V46.2643Z" fill="#E5E9F1"/>
<path d="M5.23242 44.9746V28.2635C5.23242 13.6786 17.1107 1.8125 31.7052 1.8125" stroke="#D4DAE5" stroke-width="4"/>
<path d="M37.762 72.3521L34.5266 77.949H28.0606L24.8252 72.3521" stroke="#D4DAE5" stroke-width="4"/>
<path d="M34.0625 77.9092L36.8336 90.6168" stroke="#D4DAE5" stroke-width="4"/>
<path d="M25.7539 90.6168L28.52 77.9092" stroke="#D4DAE5" stroke-width="4"/>
<path d="M58.1779 53.1909C58.1779 56.2633 55.6864 58.753 52.6107 58.753H36.2188" stroke="#D4DAE5" stroke-width="4"/>
<path d="M32.9932 36.8135V48.2464" stroke="#D4DAE5" stroke-width="4"/>
</g>
<defs>
<clipPath id="clip0_162_2685">
<rect width="64" height="91" fill="white"/>
</clipPath>
</defs>
</svg>
