<svg width="21" height="17" viewBox="0 0 21 17" fill="none" xmlns="http://www.w3.org/2000/svg">
<path d="M19.5275 8.92291C21.4908 6.88064 21.4908 3.57325 19.5275 1.53098C17.7901 -0.276332 15.052 -0.511284 13.054 0.974331L12.9984 1.01409C12.498 1.3864 12.3833 2.10933 12.7413 2.62622C13.0992 3.14311 13.7941 3.26601 14.291 2.8937L14.3466 2.85394C15.462 2.02619 16.9875 2.15632 17.9535 3.1648C19.048 4.30341 19.048 6.14687 17.9535 7.28548L14.0547 11.3483C12.9602 12.4869 11.188 12.4869 10.0934 11.3483C9.12398 10.3398 8.99888 8.75302 9.79461 7.59634L9.83284 7.53851C10.1907 7.018 10.0726 6.29507 9.5757 5.92638C9.0788 5.55769 8.38037 5.67697 8.02594 6.19386L7.98771 6.2517C6.55609 8.3265 6.78196 11.1748 8.51936 12.9821C10.4826 15.0244 13.6621 15.0244 15.6253 12.9821L19.5275 8.92291ZM1.47245 8.07709C-0.490817 10.1194 -0.490817 13.4267 1.47245 15.469C3.20985 17.2763 5.948 17.5113 7.94602 16.0257L8.00161 15.9859C8.50199 15.6136 8.61666 14.8907 8.25875 14.3738C7.90084 13.8569 7.20588 13.734 6.70898 14.1063L6.65339 14.1461C5.53798 14.9738 4.01253 14.8437 3.04654 13.8352C1.95197 12.693 1.95197 10.8495 3.04654 9.7109L6.94527 5.65167C8.03984 4.51306 9.81199 4.51306 10.9066 5.65167C11.876 6.66015 12.0011 8.24698 11.2054 9.40727L11.1672 9.46511C10.8093 9.98561 10.9274 10.7085 11.4243 11.0772C11.9212 11.4459 12.6196 11.3266 12.9741 10.8098L13.0123 10.7519C14.4439 8.6735 14.218 5.82517 12.4806 4.01785C10.5174 1.97558 7.33793 1.97558 5.37466 4.01785L1.47245 8.07709Z" fill="#7E8594"/>
</svg>
