<svg width="24" height="20" viewBox="0 0 24 20" fill="none" xmlns="http://www.w3.org/2000/svg">
<path d="M7.87976 15.7509C7.17704 15.5099 6.39469 15.6126 5.79036 16.0366C5.40621 16.3044 4.74566 16.6972 3.94456 17.0498C4.20691 16.3937 4.40835 15.6528 4.47394 14.8449C4.52079 14.2691 4.31934 13.6978 3.92114 13.2604C2.82959 12.0866 2.24868 10.7119 2.24868 9.28364C2.24868 5.73533 6.15108 2.14238 11.993 2.14238C17.8349 2.14238 21.7373 5.73533 21.7373 9.28364C21.7373 12.832 17.8349 16.4249 11.993 16.4249C10.5126 16.4249 9.12122 16.1794 7.87976 15.7509ZM1.23209 17.4872C1.15713 17.6077 1.07749 17.7282 0.993168 17.8487L0.979114 17.871C0.904158 17.9737 0.829202 18.0763 0.754246 18.179C0.590279 18.3888 0.412258 18.5941 0.224868 18.7815C0.00936952 18.9868 -0.0515323 19.2903 0.0655866 19.5581C0.182705 19.8259 0.454421 20 0.75893 20C0.997853 20 1.23678 19.9866 1.4757 19.9643L1.50849 19.9598C1.71462 19.9375 1.92075 19.9107 2.12688 19.875C2.16436 19.8706 2.20183 19.8616 2.23931 19.8527C3.0732 19.6965 3.87429 19.4287 4.58638 19.1341C5.65918 18.6878 6.57271 18.1567 7.1302 17.7684C8.61995 18.2816 10.269 18.5673 12.007 18.5673C18.6313 18.5673 24 14.412 24 9.28364C24 4.15532 18.6172 0 11.993 0C5.36873 0 0 4.15532 0 9.28364C0 11.2966 0.829202 13.1578 2.23463 14.6798C2.14562 15.7733 1.70057 16.7463 1.23209 17.4872ZM6.74605 10.7119C7.14364 10.7119 7.52495 10.5614 7.80609 10.2936C8.08723 10.0257 8.24517 9.66244 8.24517 9.28364C8.24517 8.90485 8.08723 8.54156 7.80609 8.27372C7.52495 8.00587 7.14364 7.85539 6.74605 7.85539C6.34846 7.85539 5.96715 8.00587 5.68601 8.27372C5.40487 8.54156 5.24693 8.90485 5.24693 9.28364C5.24693 9.66244 5.40487 10.0257 5.68601 10.2936C5.96715 10.5614 6.34846 10.7119 6.74605 10.7119ZM13.4921 9.28364C13.4921 8.90485 13.3342 8.54156 13.053 8.27372C12.7719 8.00587 12.3906 7.85539 11.993 7.85539C11.5954 7.85539 11.2141 8.00587 10.9329 8.27372C10.6518 8.54156 10.4939 8.90485 10.4939 9.28364C10.4939 9.66244 10.6518 10.0257 10.9329 10.2936C11.2141 10.5614 11.5954 10.7119 11.993 10.7119C12.3906 10.7119 12.7719 10.5614 13.053 10.2936C13.3342 10.0257 13.4921 9.66244 13.4921 9.28364ZM17.2399 10.7119C17.6375 10.7119 18.0188 10.5614 18.2999 10.2936C18.5811 10.0257 18.739 9.66244 18.739 9.28364C18.739 8.90485 18.5811 8.54156 18.2999 8.27372C18.0188 8.00587 17.6375 7.85539 17.2399 7.85539C16.8423 7.85539 16.461 8.00587 16.1799 8.27372C15.8987 8.54156 15.7408 8.90485 15.7408 9.28364C15.7408 9.66244 15.8987 10.0257 16.1799 10.2936C16.461 10.5614 16.8423 10.7119 17.2399 10.7119Z" fill="white"/>
</svg>
