<svg width="21" height="13" viewBox="0 0 21 13" fill="none" xmlns="http://www.w3.org/2000/svg">
<path d="M4.725 13C2.11641 13 0 11.1283 0 8.82143C0 6.99911 1.31906 5.44955 3.15656 4.8779C3.15328 4.79955 3.15 4.72121 3.15 4.64286C3.15 2.07768 5.49937 0 8.4 0C10.3458 0 12.0422 0.934375 12.9511 2.32723C13.4498 2.03125 14.0536 1.85714 14.7 1.85714C16.4391 1.85714 17.85 3.10491 17.85 4.64286C17.85 4.99688 17.7745 5.33348 17.64 5.64688C19.5562 5.98929 21 7.48951 21 9.28572C21 11.3373 19.1198 13 16.8 13H4.725ZM7.31719 6.70313C7.00875 6.97589 7.00875 7.41696 7.31719 7.68683C7.62562 7.9567 8.12437 7.9596 8.42953 7.68683L9.70922 6.55513V10.4464C9.70922 10.8324 10.0603 11.1429 10.4967 11.1429C10.9331 11.1429 11.2842 10.8324 11.2842 10.4464V6.55513L12.5639 7.68683C12.8723 7.9596 13.3711 7.9596 13.6762 7.68683C13.9814 7.41406 13.9847 6.97299 13.6762 6.70313L11.0512 4.3817C10.7428 4.10893 10.2441 4.10893 9.93891 4.3817L7.31391 6.70313H7.31719Z" fill="#7E8594"/>
</svg>
